<svg width="119" height="20" viewBox="0 0 119 20" fill="none" xmlns="http://www.w3.org/2000/svg">
<path d="M22.0088 7.71731C22.0583 6.28596 21.7452 4.86533 21.0988 3.58731C20.6602 3.06291 20.0515 2.70902 19.3788 2.58731C16.5963 2.33483 13.8023 2.23135 11.0088 2.27731C8.22546 2.22927 5.44152 2.32941 2.66882 2.57731C2.12064 2.67703 1.61333 2.93415 1.20882 3.31731C0.308816 4.14731 0.208816 5.56731 0.108816 6.76731C-0.036272 8.92487 -0.036272 11.0897 0.108816 13.2473C0.137746 13.9227 0.23831 14.5931 0.408816 15.2473C0.529391 15.7524 0.773339 16.2197 1.11882 16.6073C1.52608 17.0108 2.0452 17.2825 2.60882 17.3873C4.76473 17.6534 6.93703 17.7637 9.10882 17.7173C12.6088 17.7673 15.6788 17.7173 19.3088 17.4373C19.8863 17.339 20.42 17.0669 20.8388 16.6573C21.1188 16.3772 21.3279 16.0344 21.4488 15.6573C21.8064 14.5599 21.9821 13.4114 21.9688 12.2573C22.0088 11.6973 22.0088 8.31731 22.0088 7.71731ZM8.74882 12.8573V6.66731L14.6688 9.77731C13.0088 10.6973 10.8188 11.7373 8.74882 12.8573Z" fill="white"/>
<path d="M54.0137 3.80998C53.262 4.13607 52.4671 4.35164 51.6537 4.44998C52.5118 3.9373 53.1549 3.13076 53.4637 2.17998C52.6572 2.66004 51.7744 2.99827 50.8537 3.17998C50.2382 2.51255 49.4186 2.06827 48.5235 1.91683C47.6283 1.76538 46.7082 1.91533 45.9075 2.34316C45.1067 2.771 44.4706 3.45251 44.0989 4.28081C43.7272 5.10912 43.641 6.03736 43.8537 6.91997C42.2231 6.8375 40.6281 6.41293 39.1723 5.67384C37.7165 4.93475 36.4325 3.89767 35.4037 2.62998C35.0428 3.26014 34.8532 3.9738 34.8537 4.69998C34.8524 5.37436 35.0179 6.03859 35.3354 6.63354C35.653 7.22849 36.1127 7.73569 36.6737 8.10998C36.0216 8.09223 35.3836 7.91727 34.8137 7.59998V7.64998C34.8186 8.59487 35.1497 9.50907 35.751 10.2379C36.3523 10.9668 37.1869 11.4656 38.1137 11.65C37.7569 11.7585 37.3865 11.8158 37.0137 11.82C36.7556 11.817 36.4981 11.7936 36.2437 11.75C36.5076 12.5628 37.0183 13.2731 37.7047 13.7821C38.3912 14.2911 39.2192 14.5735 40.0737 14.59C38.6309 15.7252 36.8496 16.3448 35.0137 16.35C34.6794 16.3511 34.3454 16.331 34.0137 16.29C35.8881 17.5002 38.0725 18.1427 40.3037 18.14C41.8434 18.156 43.3708 17.865 44.7968 17.2841C46.2228 16.7031 47.5187 15.8439 48.6089 14.7565C49.6991 13.6691 50.5616 12.3754 51.1462 10.9509C51.7308 9.5264 52.0257 7.9997 52.0137 6.45997C52.0137 6.28997 52.0137 6.10997 52.0137 5.92998C52.7984 5.34479 53.4751 4.6274 54.0137 3.80998Z" fill="white"/>
<path d="M76.0137 7.52C75.5232 7.52 75.0437 7.66545 74.6359 7.93795C74.228 8.21046 73.9102 8.59778 73.7225 9.05095C73.5347 9.50411 73.4856 10.0028 73.5813 10.4838C73.677 10.9649 73.9132 11.4068 74.26 11.7536C74.6069 12.1005 75.0488 12.3367 75.5298 12.4323C76.0109 12.528 76.5096 12.4789 76.9627 12.2912C77.4159 12.1035 77.8032 11.7856 78.0757 11.3778C78.3482 10.97 78.4937 10.4905 78.4937 10C78.4937 9.67432 78.4295 9.35183 78.3049 9.05095C78.1803 8.75006 77.9976 8.47666 77.7673 8.24638C77.537 8.01609 77.2636 7.83341 76.9627 7.70878C76.6618 7.58415 76.3393 7.52 76.0137 7.52ZM85.9437 5.07C85.9384 4.29776 85.7962 3.53257 85.5237 2.81C85.323 2.28126 85.0124 1.80109 84.6125 1.40119C84.2126 1.00128 83.7324 0.690718 83.2037 0.49C82.4811 0.217464 81.7159 0.0752609 80.9437 0.0699999C79.6537 -6.70552e-08 79.2737 0 76.0137 0C72.7537 0 72.3737 -6.70552e-08 71.0837 0.0699999C70.3114 0.0752609 69.5462 0.217464 68.8237 0.49C68.2949 0.690718 67.8148 1.00128 67.4149 1.40119C67.0149 1.80109 66.7044 2.28126 66.5037 2.81C66.2311 3.53257 66.0889 4.29776 66.0837 5.07C66.0137 6.36 66.0137 6.74 66.0137 10C66.0137 13.26 66.0137 13.64 66.0837 14.93C66.0944 15.705 66.2364 16.4725 66.5037 17.2C66.7035 17.7263 67.0138 18.2037 67.4137 18.6C67.8119 19.0023 68.2931 19.3129 68.8237 19.51C69.5462 19.7825 70.3114 19.9247 71.0837 19.93C72.3737 20 72.7537 20 76.0137 20C79.2737 20 79.6537 20 80.9437 19.93C81.7159 19.9247 82.4811 19.7825 83.2037 19.51C83.7343 19.3129 84.2155 19.0023 84.6137 18.6C85.0135 18.2037 85.3238 17.7263 85.5237 17.2C85.7959 16.4739 85.9381 15.7055 85.9437 14.93C86.0137 13.64 86.0137 13.26 86.0137 10C86.0137 6.74 86.0137 6.36 85.9437 5.07ZM83.4037 13.07C83.3716 13.6871 83.2399 14.295 83.0137 14.87C82.8195 15.3497 82.5309 15.7854 82.165 16.1514C81.7991 16.5173 81.3634 16.8059 80.8837 17C80.3032 17.2136 79.6919 17.3318 79.0737 17.35C78.2837 17.35 78.0737 17.35 76.0137 17.35C73.9537 17.35 73.7437 17.35 72.9537 17.35C72.3354 17.3318 71.7242 17.2136 71.1437 17C70.6478 16.8157 70.1999 16.5217 69.8337 16.14C69.4713 15.7813 69.1915 15.3479 69.0137 14.87C68.7992 14.2901 68.6843 13.6782 68.6737 13.06C68.6737 12.27 68.6737 12.06 68.6737 10C68.6737 7.94 68.6737 7.73 68.6737 6.94C68.6843 6.32183 68.7992 5.70988 69.0137 5.13C69.198 4.6341 69.4919 4.18628 69.8737 3.82C70.234 3.45962 70.6669 3.18009 71.1437 3C71.7242 2.78641 72.3354 2.66821 72.9537 2.65C73.7437 2.65 73.9537 2.65 76.0137 2.65C78.0737 2.65 78.2837 2.65 79.0737 2.65C79.6919 2.66821 80.3032 2.78641 80.8837 3C81.3796 3.18428 81.8274 3.47827 82.1937 3.86C82.556 4.21875 82.8358 4.65213 83.0137 5.13C83.2273 5.71049 83.3455 6.32173 83.3637 6.94C83.3637 7.73 83.3637 7.94 83.3637 10C83.3637 12.06 83.4337 12.27 83.4037 13.06V13.07ZM81.8037 5.63C81.6846 5.30698 81.4969 5.01364 81.2535 4.77021C81.01 4.52678 80.7167 4.33906 80.3937 4.22C79.9501 4.06626 79.483 3.99179 79.0137 4C78.2337 4 78.0137 4 76.0137 4C74.0137 4 73.7937 4 73.0137 4C72.5419 4.00461 72.0747 4.09263 71.6337 4.26C71.3156 4.37366 71.0254 4.55371 70.7823 4.7882C70.5391 5.02269 70.3487 5.30624 70.2237 5.62C70.0784 6.06537 70.0075 6.5316 70.0137 7C70.0137 7.78 70.0137 8 70.0137 10C70.0137 12 70.0137 12.22 70.0137 13C70.0236 13.4712 70.1114 13.9375 70.2737 14.38C70.3927 14.703 70.5805 14.9964 70.8239 15.2398C71.0673 15.4832 71.3607 15.6709 71.6837 15.79C72.1103 15.9469 72.5593 16.0347 73.0137 16.05C73.7937 16.05 74.0137 16.05 76.0137 16.05C78.0137 16.05 78.2337 16.05 79.0137 16.05C79.4854 16.0454 79.9526 15.9574 80.3937 15.79C80.7167 15.6709 81.01 15.4832 81.2535 15.2398C81.4969 14.9964 81.6846 14.703 81.8037 14.38C81.971 13.9389 82.0591 13.4717 82.0637 13C82.0637 12.22 82.0637 12 82.0637 10C82.0637 8 82.0637 7.78 82.0637 7C82.064 6.5278 81.9758 6.05972 81.8037 5.62V5.63ZM76.0137 13.82C75.5125 13.82 75.0162 13.7211 74.5533 13.529C74.0904 13.3369 73.67 13.0554 73.3161 12.7005C72.9621 12.3457 72.6817 11.9245 72.4908 11.4611C72.2999 10.9977 72.2024 10.5012 72.2037 10C72.2037 9.24405 72.428 8.5051 72.8482 7.87669C73.2683 7.24828 73.8655 6.75866 74.5641 6.46983C75.2627 6.181 76.0313 6.10594 76.7726 6.25415C77.5139 6.40236 78.1945 6.76717 78.7284 7.30241C79.2622 7.83764 79.6252 8.51924 79.7715 9.2609C79.9178 10.0026 79.8407 10.771 79.55 11.4688C79.2594 12.1666 78.7682 12.7625 78.1387 13.1811C77.5092 13.5996 76.7696 13.822 76.0137 13.82ZM80.0137 6.93C79.7926 6.9066 79.588 6.80222 79.4394 6.63697C79.2907 6.47172 79.2084 6.25729 79.2084 6.035C79.2084 5.81271 79.2907 5.59828 79.4394 5.43303C79.588 5.26778 79.7926 5.1634 80.0137 5.14C80.2347 5.1634 80.4393 5.26778 80.588 5.43303C80.7367 5.59828 80.8189 5.81271 80.8189 6.035C80.8189 6.25729 80.7367 6.47172 80.588 6.63697C80.4393 6.80222 80.2347 6.9066 80.0137 6.93Z" fill="white"/>
<path d="M116.914 0H99.1137C98.8219 0 98.5421 0.115893 98.3359 0.322183C98.1296 0.528473 98.0137 0.808262 98.0137 1.1V18.9C98.0137 19.0445 98.0421 19.1875 98.0974 19.321C98.1527 19.4544 98.2337 19.5757 98.3359 19.6778C98.438 19.78 98.5593 19.861 98.6927 19.9163C98.8262 19.9715 98.9692 20 99.1137 20H108.694V12.25H106.094V9.25H108.694V7C108.64 6.47176 108.702 5.93813 108.876 5.43654C109.051 4.93495 109.332 4.47755 109.702 4.09641C110.072 3.71528 110.52 3.41964 111.016 3.23024C111.513 3.04083 112.044 2.96225 112.574 3C113.352 2.99521 114.13 3.03528 114.904 3.12V5.82H113.314C112.054 5.82 111.814 6.42 111.814 7.29V9.22H114.814L114.424 12.22H111.814V20H116.914C117.058 20 117.201 19.9715 117.335 19.9163C117.468 19.861 117.589 19.78 117.691 19.6778C117.794 19.5757 117.875 19.4544 117.93 19.321C117.985 19.1875 118.014 19.0445 118.014 18.9V1.1C118.014 0.955546 117.985 0.812506 117.93 0.679048C117.875 0.54559 117.794 0.424327 117.691 0.322183C117.589 0.220038 117.468 0.139013 117.335 0.0837326C117.201 0.0284524 117.058 0 116.914 0Z" fill="white"/>
</svg>
